<?xml version="1.0" encoding="UTF-8"?>
<svg id="Capa_2" data-name="Capa 2" xmlns="http://www.w3.org/2000/svg" viewBox="0 0 233.9 223.52">
  <defs>
    <style>
      .cls-1, .cls-2, .cls-3, .cls-4, .cls-5, .cls-6, .cls-7 {
        stroke-width: 0px;
      }

      .cls-2 {
        fill: #358c59;
      }

      .cls-3 {
        fill: #05a451;
      }

      .cls-4 {
        fill: #a79b8e;
      }

      .cls-5 {
        fill: #b6926a;
      }

      .cls-6 {
        fill: #c2996c;
      }

      .cls-7 {
        fill: #fae6d1;
      }
    </style>
  </defs>
  <g id="Capa_1-2" data-name="Capa 1">
    <g>
      <path class="cls-1" d="m36.08,100.92c-5.15,4.19-9.89,8.05-14.63,11.9-1.61,1.31-3.18,2.68-4.86,3.9-2.34,1.72-4.66,1.34-6.15-1.16-3.34-5.63-6.6-11.32-9.8-17.03-1.25-2.23-.7-3.88,1.64-5.79,15.36-12.58,30.73-25.16,46.1-37.73C70,37.34,91.61,19.67,113.22,2c3.27-2.67,4.23-2.67,7.55.04,36.85,30.14,73.71,60.27,110.56,90.41,3,2.46,3.27,3.9,1.34,7.26-2.85,4.96-5.7,9.92-8.57,14.87-2.15,3.71-4.33,4.14-7.62,1.47-5.67-4.59-11.33-9.21-17.08-13.89-.77.91-.42,1.85-.42,2.68-.02,37.49-.02,74.98-.02,112.47,0,5.25-.96,6.2-6.26,6.2-50.22,0-100.43,0-150.65,0-4.91,0-5.97-1.06-5.97-5.99,0-38.65,0-77.31,0-116.62Z"/>
      <path class="cls-7" d="m89.49,215.49c-14.63.02-29.27,0-43.9.1-1.98.01-1.58-1.14-1.58-2.23,0-18.71,0-37.41,0-56.12,0-20.2.02-40.41-.03-60.61,0-1.64.47-2.71,1.77-3.76,23.34-18.95,46.66-37.93,69.92-56.99,1.32-1.08,1.9-.54,2.85.23,23.74,19.37,47.5,38.74,71.27,58.07.99.81,1.43,1.61,1.43,2.92-.04,38.83-.04,77.65,0,116.48,0,1.43-.23,2.02-1.87,2.01-14.97-.09-29.93-.08-44.9-.1-.16-.26-.16-.51.01-.76,1.61-1.45,2.38-3.26,2.83-5.39,1.96-9.27,4.09-18.51,6.01-27.78.43-2.07,1.21-3.57,3.61-3.72,1.89-.12,2.74-1.49,3-3.17.44-2.97.47-5.98.02-8.94-.38-2.52-1.51-3.3-4.43-3.31-9.56-.04-19.12-.01-28.68-.02-.91,0-1.83.01-2.74,0-3.32-.06-3.78-.49-3.82-3.73-.04-3.41.11-6.82-.05-10.22-.11-2.54.86-3.95,3.26-4.86,7.17-2.72,14.06-6.06,20.33-10.5,8.87-6.27,15.66-14.31,19.99-24.33,1.03-2.39,1.54-4.92,1.32-7.55-.33-3.91-2.9-6.32-6.79-6.66-5.33-.46-9.66,2.01-13.97,4.56-4.17,2.46-7.79,5.66-11.36,8.91-.71.64-1.45,1.76-2.5,1.17-.95-.54-.61-1.77-.54-2.77.58-8.48-.46-16.75-3.47-24.72-.88-2.34-2.07-4.55-3.87-6.35-3.41-3.43-7.86-3.44-11.25,0-2.08,2.12-3.46,4.72-4.36,7.49-2.54,7.73-3.65,15.67-2.95,23.82.08.92.31,2.06-.56,2.53-1.07.59-1.8-.51-2.51-1.15-5.03-4.64-10.34-8.87-16.63-11.74-2.7-1.24-5.47-1.89-8.45-1.73-4.27.23-6.91,2.83-7.08,7.14-.16,4.14,1.35,7.83,3.31,11.34,7.58,13.58,19.2,22.47,33.27,28.47,1.99.85,3.96,1.73,5.99,2.49,1.61.61,2.31,1.74,2.31,3.44,0,3.82.04,7.65-.01,11.47-.04,2.94-.55,3.46-3.56,3.48-10.14.05-20.29.01-30.43.02-4.88,0-5.85.95-5.9,5.8-.02,1.91-.13,3.83.1,5.73.26,2.16,1.1,3.85,3.62,4.01,1.96.13,2.56,1.47,2.94,3.15,2.09,9.33,4.08,18.68,6.15,28.01.48,2.18,1.17,4.14,2.89,5.63.17.25.17.51,0,.76Z"/>
      <path class="cls-6" d="m224.7,97.76c-.2.35-.44.78-.68,1.21-1.41,2.44-2.86,4.85-4.2,7.32-.62,1.13-1.02,1.61-2.3.55-13.54-11.12-27.14-22.17-40.72-33.25-18.93-15.43-37.85-30.86-56.78-46.28-2.33-1.9-3.82-1.84-6.21.11-31.73,25.87-63.46,51.74-95.18,77.62-3.55,2.9-3.61,2.96-5.79-1.05-1.21-2.22-3.87-4.47-3.24-6.65.57-1.99,3.5-3.31,5.43-4.89,20.57-16.83,41.15-33.65,61.71-50.48,12.98-10.62,25.97-21.25,38.92-31.91,1.09-.9,1.79-.72,2.77.09,25.87,21.23,51.76,42.43,77.65,63.63,9.12,7.47,18.26,14.93,27.38,22.41.49.4,1.21.63,1.26,1.55Z"/>
      <path class="cls-4" d="m144.43,215.12c-.05.13-.05.25,0,.38-18.31,0-36.63,0-54.94,0,.04-.13.04-.25,0-.38.88-1.01,2.09-.91,3.23-.91,16.16-.03,32.32-.03,48.48,0,1.14,0,2.35-.09,3.23.91Z"/>
      <path class="cls-1" d="m144.43,215.12c-18.31,0-36.63,0-54.94,0-2.45-.64-2.93-2.67-3.39-4.74-2.15-9.8-4.36-19.59-6.42-29.41-.34-1.63-.92-2.14-2.55-2.19-2.42-.08-3.77-1.53-3.86-4.02-.12-3.07-.13-6.15,0-9.22.13-2.82,1.68-4.06,4.88-4.06,10.72-.02,21.45-.08,32.17.05,2.2.03,2.82-.51,2.71-2.72-.2-3.81-.12-7.65-.02-11.47.03-1.43-.33-2.16-1.77-2.69-5.54-2.02-10.83-4.58-15.98-7.47-10.96-6.15-19.27-14.84-24.92-26.06-1.54-3.06-2.57-6.29-2.33-9.81.28-4.12,3.11-7.11,7.22-7.58,3.34-.39,6.42.52,9.41,1.85,6.39,2.84,11.72,7.18,16.72,11.98.59.56,1.09,1.21,1.95,1.71-.45-4.6-.28-9.09.18-13.57.57-5.47,1.53-10.85,3.93-15.86,1.97-4.13,4.54-7.86,9.67-7.78,4.99.08,7.57,3.72,9.39,7.82,3.8,8.54,4.68,17.57,4.15,26.8-.05.81-.14,1.62-.26,2.94,3.69-3.45,7.01-6.65,10.79-9.31,3.89-2.74,7.96-5.12,12.63-6.26,5.97-1.47,10.85.88,11.95,5.83.63,2.83.18,5.65-.9,8.31-4.46,10.93-11.83,19.52-21.53,26.13-6.33,4.32-13.24,7.56-20.38,10.28-1.45.55-2.06,1.15-2,2.78.14,3.98.14,7.98,0,11.97-.06,1.79.52,2.18,2.22,2.17,10.64-.08,21.28-.04,31.92-.04,4.45,0,5.63,1.17,5.64,5.6,0,2.49.08,4.99-.02,7.48-.11,2.76-1.41,4.14-4.16,4.26-1.43.06-1.94.47-2.25,1.91-2.06,9.82-4.26,19.61-6.4,29.42-.47,2.14-.86,4.31-3.43,4.99Z"/>
      <path class="cls-6" d="m117.14,178.66c9.05,0,18.11.06,27.16-.04,2.01-.02,2.37.58,1.95,2.43-1.84,8.02-3.61,16.06-5.31,24.12-.34,1.63-.9,2.34-2.73,2.33-14.2-.08-28.41-.08-42.61,0-1.72,0-2.28-.69-2.6-2.19-1.74-8.13-3.53-16.24-5.35-24.35-.37-1.65-.11-2.34,1.83-2.32,9.22.09,18.44.04,27.66.04Z"/>
      <path class="cls-3" d="m124.63,135.07c2.33-6.39,5.34-12.35,9.56-17.57,5.16-6.39,11.32-11.66,18.94-14.98,1.44-.63,3.41-1.98,4.59-.78,1.26,1.28-.04,3.27-.72,4.79-4.24,9.42-10.94,16.73-19.61,22.26-3.98,2.54-8.16,4.7-12.75,6.29Z"/>
      <path class="cls-3" d="m109.69,135.5c-6.08-2.49-11.33-5.25-16.14-8.76-7.31-5.33-12.97-12.08-16.71-20.35-.66-1.45-1.92-3.33-.76-4.57,1.24-1.32,3.19-.01,4.59.64,11.26,5.21,19.49,13.6,25.16,24.56,1.33,2.56,2.74,5.09,3.86,8.49Z"/>
      <path class="cls-3" d="m111.44,96.74c.09-5.11,1.31-9.95,3.54-14.54.43-.88.85-2.11,1.86-2.16,1.22-.06,1.57,1.32,2.07,2.23,2,3.68,2.85,7.73,3.5,11.8,1.77,11.12-.64,21.66-4.66,31.95-.16.4-.16,1.01-1.07,1.23-2.46-6.41-4.82-12.84-5.25-19.82-.31-3.56-.36-7.13.01-10.69Z"/>
      <path class="cls-5" d="m116.71,171.12c-11.14,0-22.28.01-33.42-.02-.79,0-2.1.54-2.17-.89-.08-1.5,1.27-1,2.05-1,22.53-.03,45.06-.03,67.6,0,.79,0,2.13-.49,2.05,1.01-.08,1.42-1.39.88-2.18.88-11.31.03-22.61.02-33.92.02Z"/>
      <path class="cls-2" d="m111.44,96.74c0,3.56,0,7.13-.01,10.69-.77-3.56-.77-7.13.01-10.69Z"/>
    </g>
  </g>
</svg>