<?xml version="1.0" encoding="UTF-8"?>
<svg id="Capa_2" data-name="Capa 2" xmlns="http://www.w3.org/2000/svg" viewBox="0 0 98.04 143.45">
  <defs>
    <style>
      .cls-1, .cls-2, .cls-3, .cls-4, .cls-5, .cls-6 {
        stroke-width: 0px;
      }

      .cls-2 {
        fill: #358c59;
      }

      .cls-3 {
        fill: #05a451;
      }

      .cls-4 {
        fill: #a79b8e;
      }

      .cls-5 {
        fill: #b6926a;
      }

      .cls-6 {
        fill: #c2996c;
      }
    </style>
  </defs>
  <g id="Capa_1-2" data-name="Capa 1">
    <g>
      <path class="cls-4" d="m76.46,143.07c-.05.13-.05.25,0,.38-18.31,0-36.63,0-54.94,0,.04-.13.04-.25,0-.38.88-1.01,2.09-.91,3.23-.91,16.16-.03,32.32-.03,48.48,0,1.14,0,2.35-.09,3.23.91Z"/>
      <path class="cls-1" d="m76.46,143.07c-18.31,0-36.63,0-54.94,0-2.45-.64-2.93-2.67-3.39-4.74-2.15-9.8-4.36-19.59-6.42-29.41-.34-1.63-.92-2.14-2.55-2.19-2.42-.08-3.77-1.53-3.86-4.02-.12-3.07-.13-6.15,0-9.22.13-2.82,1.68-4.06,4.88-4.06,10.72-.02,21.45-.08,32.17.05,2.2.03,2.82-.51,2.71-2.72-.2-3.81-.12-7.65-.02-11.47.03-1.43-.33-2.16-1.77-2.69-5.54-2.02-10.83-4.58-15.98-7.47-10.96-6.15-19.27-14.84-24.92-26.06C.82,36-.2,32.78.03,29.26c.28-4.12,3.11-7.11,7.22-7.58,3.34-.39,6.42.52,9.41,1.85,6.39,2.84,11.72,7.18,16.72,11.98.59.56,1.09,1.21,1.95,1.71-.45-4.6-.28-9.09.18-13.57.57-5.47,1.53-10.85,3.93-15.86C41.42,3.65,43.99-.08,49.12,0c4.99.08,7.57,3.72,9.39,7.82,3.8,8.54,4.68,17.57,4.15,26.8-.05.81-.14,1.62-.26,2.94,3.69-3.45,7.01-6.65,10.79-9.31,3.89-2.74,7.96-5.12,12.63-6.26,5.97-1.47,10.85.88,11.95,5.83.63,2.83.18,5.65-.9,8.31-4.46,10.93-11.83,19.52-21.53,26.13-6.33,4.32-13.24,7.56-20.38,10.28-1.45.55-2.06,1.15-2,2.78.14,3.98.14,7.98,0,11.97-.06,1.79.52,2.18,2.22,2.17,10.64-.08,21.28-.04,31.92-.04,4.45,0,5.63,1.17,5.64,5.6,0,2.49.08,4.99-.02,7.48-.11,2.76-1.41,4.14-4.16,4.26-1.43.06-1.94.47-2.25,1.91-2.06,9.82-4.26,19.61-6.4,29.42-.47,2.14-.86,4.31-3.43,4.99Z"/>
      <path class="cls-6" d="m49.17,106.62c9.05,0,18.11.06,27.16-.04,2.01-.02,2.37.58,1.95,2.43-1.84,8.02-3.61,16.06-5.31,24.12-.34,1.63-.9,2.34-2.73,2.33-14.2-.08-28.41-.08-42.61,0-1.72,0-2.28-.69-2.6-2.19-1.74-8.13-3.53-16.24-5.35-24.35-.37-1.65-.11-2.34,1.83-2.32,9.22.09,18.44.04,27.66.04Z"/>
      <path class="cls-3" d="m56.66,63.03c2.33-6.39,5.34-12.35,9.56-17.57,5.16-6.39,11.32-11.66,18.94-14.98,1.44-.63,3.41-1.98,4.59-.78,1.26,1.28-.04,3.27-.72,4.79-4.24,9.42-10.94,16.73-19.61,22.26-3.98,2.54-8.16,4.7-12.75,6.29Z"/>
      <path class="cls-3" d="m41.72,63.46c-6.08-2.49-11.33-5.25-16.14-8.76-7.31-5.33-12.97-12.08-16.71-20.35-.66-1.45-1.92-3.33-.76-4.57,1.24-1.32,3.19-.01,4.59.64,11.26,5.21,19.49,13.6,25.16,24.56,1.33,2.56,2.74,5.09,3.86,8.49Z"/>
      <path class="cls-3" d="m43.47,24.69c.09-5.11,1.31-9.95,3.54-14.54.43-.88.85-2.11,1.86-2.16,1.22-.06,1.57,1.32,2.07,2.23,2,3.68,2.85,7.73,3.5,11.8,1.77,11.12-.64,21.66-4.66,31.95-.16.4-.16,1.01-1.07,1.23-2.46-6.41-4.82-12.84-5.25-19.82-.31-3.56-.36-7.13.01-10.69Z"/>
      <path class="cls-5" d="m48.74,99.08c-11.14,0-22.28.01-33.42-.02-.79,0-2.1.54-2.17-.89-.08-1.5,1.27-1,2.05-1,22.53-.03,45.06-.03,67.6,0,.79,0,2.13-.49,2.05,1.01-.08,1.42-1.39.88-2.18.88-11.31.03-22.61.02-33.92.02Z"/>
      <path class="cls-2" d="m43.47,24.69c0,3.56,0,7.13-.01,10.69-.77-3.56-.77-7.13.01-10.69Z"/>
    </g>
  </g>
</svg>